<?xml version="1.0" encoding="UTF-8"?>
<svg height="58.26mm" viewBox="0,0,724.677,206.417" width="204.52mm" xmlns="http://www.w3.org/2000/svg">
 <metadata/>
 <path d="m294.597 717.145c-10.4097-5.15266-12.9647-18.0006-5.3737-27.022 2.75027-3.26852 9.30085-6.77687 12.7054-6.80476 7.85994-.0644 16.4449 6.34026 18.4424 13.7587 2.14031 7.9485-1.88126 16.5534-9.44833 20.2166-5.33542 2.58283-10.9102 2.5321-16.3258-.14858zm17.5474-7.24105c6.46393-7.05337 3.47875-17.9767-5.66112-20.715-4.93553-1.47872-10.0588.12979-13.5218 4.24529-3.62481 4.30784-3.56351 11.478.13571 15.8743 3.44456 4.09363 5.81248 5.05167 11.2972 4.57079 3.58248-.31411 5.1152-1.10032 7.75-3.97538zm204.03-4.35867-13.7454-13.7455v13.2455 13.2454h-2.5-2.5v-17-17h2.73435c2.14831 0 5.14891 2.4077 14 11.2337l11.2656 11.2337v-11.2337-11.2337h3 3v17.5c0 9.625-.33955 17.5-.75455 17.5s-6.94-6.18545-14.5-13.7454zm-364.741 6.74086c2.86103-3.30253 5.60555-6.25409 6.09894-6.55902.4934-.30493.89708-2.10287.89708-3.99541 0-3.09962.27696-3.44098 2.79179-3.44098 1.98784 0 4.06359-1.29586 7.20821-4.5l4.41642-4.5h-12.7082-12.7082v-2.5-2.5h18.0833c9.94584 0 17.9333.39316 17.75.87368-.18333.48053-2.89708 3.63053-6.03056 7-4.90195 5.27115-6.1905 6.12632-9.23095 6.12632-2.93446 0-3.64003.42357-4.16061 2.49776-.3448 1.37377-.36738 3.17407-.0502 4.00066.33452.87174-.7136 2.97249-2.49574 5.00224l-3.07245 3.49934h12.6036 12.6036v2.5 2.5h-18.5989-18.599zm46.996-10.9954v-17h14.5 14.5v2.5 2.5h-12-12v11.9683 11.9683l11.75.28173c11.3256.27156 11.7615.36301 12.0696 2.53174.31884 2.245.28718 2.25-14.25 2.25h-14.5696v-17zm43 0v-17h11.453c6.7497 0 12.5297.49061 14.075 1.19469 2.93321 1.33646 5.47399 5.5208 5.46832 9.00565-.005 3.14968-3.40967 8.47871-5.92726 9.27776-3.30377 1.04858-2.44085 3.58249 3.14684 9.24045l5.21584 5.28145h-3.50763c-2.81053 0-4.34396-.85216-7.71584-4.28785-3.81012-3.88223-4.20821-4.76028-4.20821-9.28189 0-4.72796.14652-5.00579 2.75-5.21441 4.71387-.37774 6.87253-5.45046 3.67857-8.64442-1.17998-1.17999-3.67099-1.57143-10-1.57143h-8.42857v14.5 14.5h-3-3v-17zm113 0v-17h9.16214c7.95482 0 9.7211.32757 13.404 2.48587 4.8503 2.84246 8.43391 9.07691 8.43391 14.6726 0 5.21704-3.96085 11.9494-8.57502 14.5751-3.27359 1.86287-5.46011 2.23628-13.175 2.25l-9.25.0164v-17zm20.8565 9.46727c1.65549-1.393 3.52491-4.093 4.15428-6 1.50153-4.54966-.0943-9.51828-4.15428-12.9345-2.53733-2.13503-4.01857-2.53273-9.43325-2.53273h-6.42327v12 12h6.42327c5.41468 0 6.89592-.3977 9.43325-2.53273zm18.5631 5.78273c.34846-.9625 3.41612-8.6125 6.81704-17l6.18347-15.25h4.6035 4.60349l6.69031 16.25c3.67967 8.9375 6.68858 16.5875 6.68646 17-.002.4125-1.24135.74574-2.75385.74053-2.6012-.009-3.06798-.79356-8.62649-14.5-3.23207-7.96979-6.19272-14.4905-6.57923-14.4905-.3865 0-3.36708 6.52408-6.62351 14.498-5.67545 13.8972-6.03915 14.498-8.77776 14.5-2.29602.002-2.73259-.34156-2.22343-1.74795zm51.0976.5c-1.25538-3.7363-9.51723-31.6482-9.51723-32.1531 0-.32831 1.27008-.59692 2.82241-.59692 2.76647 0 2.90868.28724 7.17507 14.4916 2.39396 7.97038 4.4629 14.3814 4.59764 14.2466.13474-.13475 1.43066-4.96847 2.87982-10.7416 4.86353-19.3752 4.29945-17.9966 7.36369-17.9966 2.72198 0 2.81023.20052 6.16137 14 1.86991 7.7 3.64737 13.9981 3.94992 13.9958.30254-.002 2.37024-6.18982 4.59488-13.75 4.02132-13.666 4.06295-13.7476 7.17042-14.0532l3.12562-.30743-3.41888 11.3074c-1.88039 6.21908-4.15388 13.8949-5.0522 17.0574l-1.63331 5.75h-4.6714-4.6714l-2.32218-9.75c-1.2772-5.3625-2.62984-10.328-3.00586-11.0344-.3769-.7081-1.49297 2.14836-2.48725 6.36587-3.61622 15.3392-3.09541 14.4186-8.15675 14.4186-2.69684 0-4.6518-.49827-4.90438-1.25zm-382.123-3.16395c-.34222-.89181-1.317-1.501-2.16619-1.35376-2.5772.44686-3.02619-3.91142-3.23954-31.4456-.2371-30.599-.10823-38.5844.66429-41.1637.3092-1.03235.25189-5.60199-.12735-10.1548-.54601-6.55484-1.03674-8.35516-2.3577-8.64959-1.81245-.40398-43.2947.87975-46.8347 1.44937-2.60184.41866-5.33343 2.53502-5.33343 4.13219 0 1.62399-3.89792 4.78092-5.03522 4.07804-.51803-.32017-.7125.0156-.43215.7462.28035.73057-1.29981 3.09527-3.51145 5.25488-3.60553 3.52071-5.45041 6.52203-3.12596 5.08544 1.50705-.93141 1.92823 1.76558 1.36721 8.75471-.51826 6.45642-.6267 6.68053-3.23267 6.68053-1.48303 0-2.9957.29928-3.36149.66507-.36579.36578-1.75585.78136-3.08903.9235-4.52471.48241-4.66012-.78954-4.58705-43.0886.07342-42.5037.04754-42.038 2.32656-41.8496 1.12887.0933 1.62696-.34944 1.31314-1.16724-.73058-1.90385 1.86355-2.57254 3.97902-1.02567.99292.72604 2.28707 1.1352 2.87589.90925s1.95767.2379 3.04189 1.03078c1.87769 1.37315 1.95738 2.52579 1.67815 24.2721l-.29316 22.8305 5.9703-6.25c5.25272-5.4988 6.42977-6.25501 9.79316-6.29166 2.10257-.0229 13.6104-.0941 25.5729-.15816l21.75-.11651.11515-14.0918c.0633-7.75051.0285-14.9179-.0774-15.9276s.58703-2.69716 1.53983-3.75c1.49349-1.65026 1.51868-1.91425.18269-1.91425-1.30239 0-1.66683-2.49924-2.28366-15.6606-1.0937-23.3366.59672-36.3394 4.72428-36.3394.98951 0 1.79911.46156 1.79911 1.02568 0 .58409 1.2916.35777 3-.52568 2.95096-1.526 3-1.51007 3 .97432 0 2.62184 1.49935 3.46083 2.27976 1.27568 1.2195-3.4146 1.68632 1.52805 1.76723 18.7115.0488 10.3601-.27933 19.107-.72914 19.4375-.44982.33052-1.49285 1.50095-2.31785 2.60095-1.39595 1.86126-1.37693 1.9034.27417.6075.97579-.76588 2.10079-1.0665 2.5-.66806.3992.39844.83914 10.4384.97763 22.311s.45379 21.7885.70067 22.0354c.24688.24688 5.97756.50857 12.7348.58154 13.6333.14721 14.3436.55275 11.6453 6.64873-1.17909 2.66376-1.66892 2.91766-4.5765 2.37219-2.16792-.4067-3.25609-.21973-3.25609.55947 0 .64367-.41372.91461-.91938.6021-.50566-.31252-1.52352.0359-2.2619.77431-.83642.83642-3.69419 1.34253-7.58062 1.34253-3.43096 0-6.43139.19329-6.66764.42954-.64434.64433-1.06012 52.7843-.60342 75.6696.27808 13.9347-.0344 14.6608-7.70861 17.9152-.68286.28957-1.52157-.20316-1.86378-1.09496zm7.87147-17.1978c.2746-1.43649-.0637-3.69701-.75187-5.02339-1.22192-2.35524-1.26642-2.31615-1.90422 1.67247-.35919 2.24623-.39183 4.50675-.0725 5.02338 1.05066 1.70001 2.22107.98262 2.72862-1.67246zm538.911 15.6118c-.90778-2.15997-1.06344-2.22798-1.14448-.5-.0864 1.84157-.17454 1.86138-1.11308.25-.5606-.9625-1.84182-1.75-2.84715-1.75-2.39839 0-3.88988-1.90124-3.92242-5-.0144-1.375-.3362-4.86017-.71502-7.74483-.50137-3.81778-.31418-5.69862.68796-6.91262 1.07242-1.29914 1.10043-1.76079.12673-2.0885-.6875-.2314-1.25-1.30977-1.25-2.3964 0-1.3144.41839-1.72432 1.25-1.22471.84936.51028.81011.20868-.12244-.94098-.75485-.93058-.95957-1.69196-.45494-1.69196.78848 0 1.7413-10.5434 1.35558-15-.0714-.825-.33223-9.66425-.5796-19.6428-.39291-15.8488-.25088-18.2191 1.12325-18.7464.86517-.33199 2.44044-.13941 3.50059.42797 1.32641.70987 1.92756.70875 1.92756-.004 0-1.431 2.23619-.85017 3.71458.96482 1.0396 1.2763 1.24142 1.12717 1.3533-1l.13148-2.5.80064 2.50041c.44035 1.375.8455 1.91094.90032 1.19098.0548-.71996.57899-1.01278 1.16482-.65072.70631.43652.53787 1.24093-.5 2.38776-1.71314 1.893-2.21301 8.59042-.56514 7.57198.55-.33992 1-1.49148 1-2.55902s.39341-1.94098.87424-1.94098.79099 7.9875.68924 17.75c-.10176 9.7625.16507 24.5.59293 32.75.78736 15.1815-.26079 24.9652-2.59133 24.1884-1.20425-.40142-2.99416 1.17089-3.79029 3.3295-.40291 1.09241-.82293.82477-1.59733-1.01786zm4.42671-70.7292c-.33229-.33229-.56864.25834-.52522 1.3125.048 1.16495.28494 1.4019.60416.60417.28887-.72188.25335-1.58438-.0789-1.91667zm-401.424 59.4792c.2288-1.61101 1.10054-2.33986 3.06955-2.56642 2.36784-.27245 2.75.0402 2.75 2.25 0 2.19783-.44084 2.56642-3.06955 2.56642-2.61125 0-3.02184-.33594-2.75-2.25zm120.13-33.6137-3.13539-2.86374-.15213-29.8863c-.0837-16.4374-.2197-33.4863-.30229-37.8863-.0826-4.4-.0535-12.3514.0647-17.6698l.21478-9.66986 6.00476.22462c3.30262.12354 6.48366.70351 7.06897 1.28882.71032.71032 1.1833 16.2179 1.42235 46.6352.35813 45.5679.35801 45.571-1.72844 45.881-1.14764.1705-2.20518 1.13264-2.3501 2.13809-.79543 5.51856-2.55479 5.96616-7.10721 1.80817zm5.65904-31.6363c0-.55-.43621-.325-.96937.5s-.96937 1.95-.96937 2.5.43621.325.96937-.5.96937-1.95.96937-2.5zm-2.96937-7.05902c0-.85746-.45734-1.27636-1.01631-.9309s-.75742 1.04702-.44098 1.55902c.85723 1.38704 1.45729 1.12841 1.45729-.62812zm-.44615-9.35385c-1.14929-1.85959-2.39412-1.19233-1.82632.97896.35246 1.34778.88065 1.72573 1.51925 1.08713.53843-.53843.67661-1.46816.30707-2.06609zm-1.94968-6.8163c-.33229-.33229-.56864.25834-.52522 1.3125.048 1.16495.28494 1.4019.60416.60417.28887-.72188.25335-1.58438-.0789-1.91667zm-22.6042 50.5326c-1.925-.48926-4.175-1.16438-5-1.50027-.825-.33588-2.5754-.79033-3.88977-1.00988s-5.78579-3.36101-9.93649-6.98104c-4.15071-3.62002-8.17006-7.0837-8.93191-7.69707-.76185-.61336-2.25293-1.90271-3.31351-2.86521-1.06057-.9625-2.53358-1.75-3.27333-1.75-3.3348 0-4.40647-3.38269-5.00028-15.7833-.54006-11.278-.42909-12.4424 1.35587-14.2273 1.06923-1.06923 2.59647-1.6937 3.39387-1.38771s3.4956-.34861 5.99601-1.45465c7.38732-3.26777 10.255-10.0997 7.52572-17.929-.84024-2.41029-2.07542-3.42165-5.67814-4.64922-2.53238-.86287-6.21166-1.57959-8.17618-1.59271-1.96452-.0131-5.25672-.41513-7.316-.89336-4.60062-1.06842-23.5448.30613-25.0567 1.81805-.67614.67614-.71181 1.09917-.0927 1.09917.61134 0 .90344 3.0427.74398 7.75-.32546 9.60753-1.001 12.584-2.62787 11.5786-.67031-.41427-2.94119-.84176-5.04641-.94996-2.10522-.10821-4.13109-.49889-4.50194-.86818s-.81821-7.32163-.99413-15.4496c-.26784-12.3744-.0652-15.0329 1.24611-16.3442 1.35493-1.35494 4.63246-1.51034 24.3199-1.15315 12.5146.22705 24.308.68073 26.2074 1.00817 7.22595 1.24568 17.5374 8.37973 19.8617 13.7414.75984 1.75283 1.44036 6.83404 1.51227 11.2916.11749 7.28375-.14764 8.52527-2.61764 12.2577-3.15342 4.76514-9.9361 10.0304-13.9598 10.8366-2.5804.51706-2.7465.86713-2.6932 5.67605.0556 5.01882.17812 5.22355 5.91253 9.88191 9.97435 8.10266 24.939 21.7005 25.879 23.5153 1.52043 2.93553-1.62603 5.10441-5.84829 4.03128zm-21.5-49.8035c1.74982-1.93352 1.74666-1.99949-.095-1.98469-2.67383.0215-4.79061 1.55173-3.97409 2.87289.99106 1.60357 2.01668 1.3797 4.0691-.8882zm-56.0709 47.6758c-.32702-.85222-1.23829-1.30247-2.02504-1.00057-1.20013.46053-1.40704-1.55991-1.28501-12.5479l.14545-13.0968-6.38223-6.63469c-3.51023-3.64909-6.92578-7.20486-7.59011-7.90172-1.5067-1.58046-17.4214-.83006-18.5268.87357-.40408.62277-.74158 2.31815-.75 3.7675-.0289 4.97653-5.35271 14.2022-12.0744 20.9239-5.28479 5.28479-16.7468 10.7774-24.9358 11.9494-6.65695.95268-16.682.36151-18.546-1.09364-.57249-.44693-2.59749-1.08416-4.5-1.41605-12.6862-2.21314-26.5364-19.7553-27.893-35.3282-1.33615-15.3386 2.56696-26.4797 13.0426-37.2286 5.74975-5.89979 7.2159-6.82827 14.6064-9.25 17.9814-5.89215 38.3386-1.77486 49.8551 10.0833 4.19913 4.32371 9.93537 14.2996 10.9107 18.9748l.67802 3.25h6.87132c13.5923 0 15.306.80609 28.2696 13.298l11.625 11.202-.59568 14.5c-.32763 7.975-.69932 14.6261-.82599 14.7802-.12666.15414-1.67343.46289-3.43727.68611-1.76384.22323-3.8449.9353-4.62459 1.58238-1.11181.92272-1.54588.84227-2.01221-.37296zm-65.765-18.4512c9.31092-7.50457 11.4781-9.8321 13.8779-14.9048 2.0651-4.36527 2.59697-6.98293 2.5726-12.6614-.0435-10.1422-.80793-16.1974-2.00978-15.9204-.56804.13091-.79144-.39094-.49646-1.15965.31267-.81482-.26666-1.65253-1.38923-2.00882-1.05906-.33613-3.11062-1.94117-4.55902-3.56675-6.37263-7.15219-19.6541-10.6051-30.794-8.00592-10.5389 2.45898-19.8382 12.4517-21.4599 23.06-.37357 2.44371-1.08964 4.96556-1.59126 5.60409-.56191.71529-.5095 1.40975.13652 1.80902.57671.35642 1.04856 2.62531 1.04856 5.04197 0 7.48837 4.18615 14.4473 11.7695 19.5652 10.8919 7.35083 25.898 8.78664 32.8946 3.14739zm56.8459-18.2142c-1.5753-1.64426-3.12199-2.72893-3.43709-2.41036-.51087.51649 4.7785 5.38262 5.86419 5.39496.2404.003-.85179-1.34034-2.4271-2.9846zm-99.2407-32.8578 1.76931-3.65259-2.56875 3c-1.41281 1.65-3.02334 3.80808-3.57897 4.79573-.88014 1.56451-.7772 1.64854.79944.65259.99531-.62873 2.60585-2.78681 3.57897-4.79573zm558.183 66.6878c-8.28741-5.69065-9.00609-6.38933-15.2652-14.8404-3.0551-4.125-12.4471-14.3629-20.8711-22.7509-8.42403-8.38802-15.3164-15.8342-15.3164-16.5471 0-2.20428-12.463-13.1519-13.9361-12.2415-.38555.23828-.50963 6.46557-.27572 13.8384.36727 11.5766.20874 13.4883-1.16213 14.0143-1.64572.63152-34.5317 1.12344-35.1093.52517-.17967-.18613-.48196-1.23842-.67175-2.33842s-.79507-2.32109-1.34507-2.71353c-.55-.39243-1.00753-1.06743-1.01673-1.5-.009-.43256-.9092-1.81356-2-3.06889s-1.98327-2.60533-1.98327-3 6.075-.94258 13.5-1.21758l13.5-.5v-39.9436-39.9436l6.42165.16232c3.89719.0985 6.72518.65343 7.19375 1.4116 1.27082 2.05623 2.10026 12.7973 2.24662 29.0932l.13798 15.3635 6.40953 5.92832c3.52523 3.26057 8.79008 8.40331 11.6996 11.4283 2.90956 3.025 12.2247 12.475 20.7003 21s16.2608 16.6552 17.3004 18.067c1.03957 1.41186 2.22804 2.76186 2.64103 3 .413.23813.84498-11.474.95996-26.027.18902-23.9246.38057-26.6315 1.99909-28.25 1.72007-1.72007 1.79005-1.70955 1.79005.26897 0 1.13246.45 1.7809 1 1.44098s1-1.64148 1-2.89235c0-1.89113.54757-2.28097 3.25-2.31379 1.7875-.0217 3.88883-.20921 4.66962-.41667 1.20894-.32121 1.39149 4.81719 1.23003 34.6228-.10427 19.25-.4632 37.925-.79761 41.5-.33442 3.575-.66943 7.70649-.74446 9.1811-.075 1.4746-.37622 2.92088-.66929 3.21395s-3.21158-1.30652-6.48557-3.55465zm5.54728-48.3994c0-.24254-.45-.44098-1-.44098s-1 .47656-1 1.05902.45.7809 1 .44098 1-.81648 1-1.05902zm-51-7.78599c0-.18976-.96548-1.20226-2.14551-2.25-2.13401-1.89478-2.13918-1.89293-.96482.34501.97478 1.85759 3.11033 3.16556 3.11033 1.90499zm-275.005 56.5143c-1.3188-.44535.57512-3.91237 4.15664-7.60917 1.56649-1.61691 2.84817-3.43895 2.84817-4.04898 0-1.03646 10.4701-12.8658 19.4634-21.9901 3.82206-3.87774 3.97735-4.2974 4.35589-11.7711.43924-8.67219-.54879-7.84291 9.69278-8.13541 3.73641-.10672 4.71534-.84403 14.25-10.733 5.63089-5.84011 10.2386-10.7901 10.2392-11 .0007-.20989-8.8868-.0602-19.75.33254-10.8632.39279-23.4535.45292-27.9784.13363l-8.22712-.58053.30834-5.88152c.16959-3.23484.51425-6.08742.7659-6.33908.25166-.25165 19.9026-.60971 43.6688-.79568 32.239-.25228 43.2112-.0444 43.2112.8186 0 .6362-2.1375 3.16016-4.75 5.60878-4.53523 4.25075-20.8459 21.7432-24.8499 26.6504-3.17402 3.89-6.53444 5.06631-13.7306 4.80636l-6.66951-.24092v8.06312c0 7.33741-.24145 8.33221-2.68267 11.0529-14.2997 15.9367-14.7958 16.5692-13.6054 17.3454.54349.3544 1.24511 1.31937 1.55916 2.14437.37481.98462.59812.70665.64994-.80902.0515-1.50713.48845-2.05593 1.25808-1.58027.64853.40081 11.786.79564 24.75.8774 17.4323.10994 24.287.49819 26.3209 1.49079 1.5125.73817 2.79933 1.6074 2.85963 1.93162.0603.32421.23685 1.93948.39235 3.58948.15549 1.65.44366 3.675.64037 4.5.31008 1.30051-3.23318 1.53317-26.6424 1.7494-14.85.13718-34.7683.36218-44.2628.5-9.49454.13783-17.7034.1018-18.242-.0801zm69.8117-65.6958c-.30789-.30789-.86705.24711-1.24258 1.23333-.54268 1.4252-.42782 1.54006.5598.5598.68342-.67834.99067-1.48524.68278-1.79313zm-11.6194-17.1566c-.72188-.28887-1.58438-.25335-1.91667.0789-.33229.3323.25834.56864 1.3125.52522 1.16495-.048 1.4019-.28494.60417-.60416zm89.8125 82.9884c-3.49752-.59082-13.1817-4.44952-15.0787-6.00819-.86831-.71343-1.93585-1.29714-2.37232-1.29714s-2.98724-2.3625-5.66838-5.25c-5.44382-5.86283-10.031-14.1562-11.9315-21.5716l-1.26226-4.9251-14.1013.35161c-7.75571.19338-15.4478.001-17.0934-.4275-3.37439-.87863-7.19318-6.87636-5.47329-8.59625.53965-.53965.98118-1.84666.98118-2.90446 0-1.84918.69497-1.89977 18.0364-1.31306 13.8994.47025 18.1157.3265 18.3821-.62672 4.37528-15.6554 13.0437-27.0822 25.191-33.207 5.12433-2.58374 7.21682-3.02097 16.0872-3.36145 9.07496-.34833 11.0551-.095 18 2.30326 8.90451 3.07492 15.5155 7.70181 20.5676 14.3948 6.67601 8.84439 9.83006 17.0409 9.94829 25.853.12178 9.07749-1.09579 14.4371-3.4177 15.0443-1.62523.42501-1.87947 1.08722-1.39289 3.62801.45798 2.39142.34496 2.76223-.49012 1.6081-.87652-1.21139-.9904-1.06682-.59187.75138.27142 1.23826.18335 2.0597-.19571 1.82543-.37907-.23428-1.9788 2.03713-3.55497 5.04757-3.29656 6.29635-8.75694 11.3418-16.233 14.9995-6.92168 3.38646-20.0135 5.08734-28.3363 3.68143zm3-8.27015c0-1.5146-3.76701-3.22118-4.49833-2.03788-.97102 1.57114-1.94286 1.18989-3.01454-1.18261-1.34045-2.96748-3.59378-3.59574-3.18035-.88672.5269 3.45261 1.52554 3.97314 9.44322 4.9222.6875.0824 1.25-.28434 1.25-.81499zm17.6208-7.51312c.83713-.83713 2.16491-1.57831 2.95063-1.64706.78571-.0687 1.79354-.18125 2.23962-.25.44608-.0687 2.35779-1.925 4.24825-4.125s3.99324-4.3558 4.67284-4.79067c1.94981-1.24767 4.58967-11.6265 4.63157-18.2093.0486-7.63334-3.19445-15.4826-8.76624-21.2173-2.25361-2.3195-4.46711-4.232-4.9189-4.25-1.18753-.0473-3.33371-2.36476-3.25-3.50934.0393-.53714-2.29107-1.50124-5.17857-2.14245-2.8875-.64122-5.25-.80174-5.25-.35673 0 .44502.5625 1.0361 1.25 1.31351.74674.30132.54544.53617-.5.58333-.9625.0434-1.75689-.48355-1.76531-1.17105-.009-.77413-.29501-.86931-.75-.25-.84175 1.14572-8.28629 1.39123-7.58049.25.93834-1.51725-2.56712-.69414-4.25883 1-.96111.9625-3.91504 3.14772-6.56428 4.85606-9.40404 6.06408-13.2912 13.9815-12.4676 25.3939.73462 10.1786 1.97248 14.6042 5.47456 19.5726l2.96666 4.20885-2.15238 1.08267c-1.99728 1.00466-1.96272 1.04289.47956.53048 1.60873-.33752 4.46435.28257 7.34532 1.595 2.59237 1.18096 6.58299 2.50298 8.86806 2.93783 6.19537 1.17897 16.4822.3879 18.2755-1.40541zm-2.74836-58.1858c-1.24448-1.5086-1.16266-1.55194.87756-.46482 2.32696 1.23991 2.89993 2.12854 1.37244 2.12854-.48265 0-1.49515-.74867-2.25-1.66372zm-66.8724 32.6637c0-.55-.42344-1-.94098-1s-1.2191.45-1.55902 1 .0835 1 .94098 1c.85746 0 1.55902-.45 1.55902-1zm-132.288-67.7844c-4.96507-5.04086-5.59322-6.21563-3.3235-6.21563.76389 0 1.32639-.7875 1.25-1.75-.0787-.99199.44814-1.62652 1.21637-1.46491 1.88.39547 4.14474-1.67593 4.14474-3.7909 0-.98271.98974-2.01975 2.23956-2.34659 1.68572-.44082 3.18907.33404 6.07916 3.13337 5.91834 5.73248 6.14066 6.59263 2.68264 10.3787-1.65075 1.80733-3.00136 3.66233-3.00136 4.12222 0 .45988-.41157.58179-.91459.27091-.50302-.31089-1.06552-.17193-1.25.30879-.18448.48073-1.25234 1.15852-2.37302 1.50621-1.55324.48189-3.15783-.50515-6.75-4.15216z" fill="#fff" transform="translate(27.43 -516.3)"/>
</svg>
