<?xml version="1.0" encoding="UTF-8"?>
<!DOCTYPE svg PUBLIC "-//W3C//DTD SVG 1.0//EN" "http://www.w3.org/TR/2001/REC-SVG-20010904/DTD/svg10.dtd">
<!-- Creator: CorelDRAW 2020 (64-Bit) -->
<svg xmlns="http://www.w3.org/2000/svg" xml:space="preserve" width="32px" height="32px" version="1.0" style="shape-rendering:geometricPrecision; text-rendering:geometricPrecision; image-rendering:optimizeQuality; fill-rule:evenodd; clip-rule:evenodd"
viewBox="0 0 32 32"
 xmlns:xlink="http://www.w3.org/1999/xlink"
 xmlns:xodm="http://www.corel.com/coreldraw/odm/2003">
 <defs>
  <style type="text/css">
   <![CDATA[
    .fil0 {fill:#C972AB}
   ]]>
  </style>
 </defs>
 <g id="Layer_x0020_1">
  <metadata id="CorelCorpID_0Corel-Layer"/>
  <path class="fil0" d="M12.77 20.32c-2.29,-0.08 -4.59,1.74 -6.31,3.81 -1.99,2.41 -6.05,3.48 -5.95,-3.92 0.04,-2.92 2.15,-9.95 3.36,-12.08 0.94,-1.68 3.41,-2.57 6.61,-1.74 5.07,1.31 5.97,1.31 11.04,0 3.2,-0.83 5.67,0.06 6.62,1.74 1.2,2.13 3.31,9.16 3.35,12.08 0.1,7.4 -3.96,6.33 -5.95,3.92 -1.71,-2.07 -4.02,-3.89 -6.31,-3.81l-6.46 0zm-1.45 -7.23l0.48 -1.89 -2.35 -0.34 0.53 -2.1 -1.93 -0.28 -0.53 2.1 -2.34 -0.34 -0.48 1.89 2.34 0.34 -0.53 2.1 1.93 0.28 0.53 -2.1 2.35 0.34zm13.87 -3.62c0.68,-0.26 1.53,0.14 1.92,0.9 0.38,0.75 0.14,1.56 -0.53,1.82 -0.68,0.26 -1.54,-0.14 -1.92,-0.89 -0.38,-0.75 -0.15,-1.57 0.53,-1.83zm-4.2 1.64c0.68,-0.26 1.53,0.14 1.92,0.89 0.38,0.76 0.14,1.57 -0.53,1.83 -0.68,0.26 -1.54,-0.14 -1.92,-0.89 -0.38,-0.75 -0.15,-1.57 0.53,-1.83zm3.22 1.39c0.68,-0.26 1.53,0.14 1.92,0.89 0.38,0.75 0.14,1.57 -0.53,1.83 -0.68,0.26 -1.54,-0.14 -1.92,-0.89 -0.38,-0.75 -0.15,-1.57 0.53,-1.83zm-2.24 -4.34c0.68,-0.26 1.53,0.14 1.92,0.89 0.38,0.75 0.14,1.57 -0.53,1.83 -0.68,0.26 -1.54,-0.14 -1.92,-0.89 -0.38,-0.75 -0.14,-1.57 0.53,-1.83z"/>
 </g>
</svg>
