<?xml version="1.0" encoding="UTF-8"?>
<!DOCTYPE svg PUBLIC "-//W3C//DTD SVG 1.1//EN" "http://www.w3.org/Graphics/SVG/1.1/DTD/svg11.dtd">
<!-- Creator: CorelDRAW 2020 (64-Bit) -->
<svg xmlns="http://www.w3.org/2000/svg" xml:space="preserve" width="550px" height="350px" version="1.1" style="shape-rendering:geometricPrecision; text-rendering:geometricPrecision; image-rendering:optimizeQuality; fill-rule:evenodd; clip-rule:evenodd"
viewBox="0 0 550 350"
 xmlns:xlink="http://www.w3.org/1999/xlink"
 xmlns:xodm="http://www.corel.com/coreldraw/odm/2003">
 <defs>
  <style type="text/css">
   <![CDATA[
    .str0 {stroke:#00CCFF;stroke-width:8.33;stroke-linecap:round;stroke-miterlimit:22.9256}
    .fil0 {fill:none}
    .fil1 {fill:#CC33FF}
   ]]>
  </style>
 </defs>
 <g id="Layer_x0020_1">
  <metadata id="CorelCorpID_0Corel-Layer"/>
  <path class="fil0 str0" d="M475.83 230.53c-0.33,89.76 -50.87,76.05 -75.89,45.82 -21.91,-26.45 -51.33,-49.71 -80.5,-48.62l-82.45 0c-29.17,-1.09 -58.6,22.17 -80.5,48.62 -25.03,30.24 -75.59,43.95 -75.89,-45.89m33.64 -138.28c3.28,-8.24 6.41,-15.13 9.16,-20 12.08,-21.37 43.54,-32.82 84.34,-22.24 64.71,16.79 76.23,16.79 140.95,0 40.8,-10.58 72.26,0.87 84.34,22.24 2.86,5.07 6.13,12.32 9.56,21"/>
  <g>
   <path class="fil1" d="M476.41 164.08l-19.42 -58.45 18.62 5.27 11.87 38.35 0.32 0.09 12.2 -31.55 16.69 4.72 -19.42 47.47 20.38 61.19 -18.61 -5.26 -12.84 -41.41 -0.32 -0.09 -13.16 34.06 -16.69 -4.72 20.38 -49.67zm-418.51 60.46c-8.56,2.42 -15.08,1.92 -19.58,-1.51 -4.49,-3.42 -6.74,-9.52 -6.74,-18.3l0 -56.98c0,-8.77 2.25,-16.15 6.74,-22.11 4.5,-5.97 11.02,-10.16 19.58,-12.58 8.56,-2.42 15.09,-1.92 19.58,1.51 4.5,3.42 6.74,9.52 6.74,18.3l0 9.29 -16.69 4.72 0 -10.38c0,-7.12 -3.05,-9.82 -9.15,-8.1 -6.09,1.73 -9.14,6.15 -9.14,13.27l0 59.31c0,7.02 3.05,9.67 9.14,7.94 6.1,-1.72 9.15,-6.09 9.15,-13.11l0 -21.22 -8.83 2.5 0 -15.48 25.52 -7.22 0 35.46c0,8.78 -2.24,16.15 -6.74,22.11 -4.49,5.97 -11.02,10.16 -19.58,12.58zm52.3 -121.13l24.78 -3.13 18.96 105.99 -18.29 2.31 -3.33 -21.1 0 0.31 -20.79 2.63 -3.32 21.64 -16.97 2.14 18.96 -110.79zm19.96 69.94l-8.15 -52.54 -0.33 0.04 -7.99 54.59 16.47 -2.09zm32.62 -76.54l26.28 -1.69 11.73 76.82 0.33 -0.02 11.72 -78.33 26.29 -1.69 0 108.39 -17.41 1.12 0 -82.07 -0.34 0.02 -13.39 82.93 -15.41 0.99 -13.39 -81.2 -0.34 0.02 0 82.06 -16.07 1.04 0 -108.39zm90.16 -4.6l50.36 0.25 0 15.48 -31.9 -0.16 0 28.65 25.35 0.12 0 15.49 -25.35 -0.13 0 33.3 31.9 0.15 0 15.49 -50.36 -0.25 0 -108.39zm60.93 0.58l48.79 2.22 0 15.49 -30.35 -1.39 0 30.2 23.81 1.08 0 15.49 -23.81 -1.09 0 47.23 -18.44 -0.84 0 -108.39zm57.65 3.09l18.35 1.86 0 92.91 30.21 3.05 0 15.48 -48.56 -4.91 0 -108.39zm57.29 6.61l18.21 2.79 0 108.39 -18.21 -2.79 0 -108.39zm34.59 9.28l16.89 50.83c0.36,0.96 0.38,2.04 -0.04,3.06l-18.61 45.35 8.57 2.43 11.72 -30.34c0.69,-2.1 2.92,-3.3 5.07,-2.7l0.32 0.1 0 0c1.32,0.37 2.42,1.38 2.85,2.78l12.17 39.24 8.9 2.52 -17.91 -53.76 0.01 0c-0.3,-0.9 -0.29,-1.91 0.09,-2.87l17.66 -43.16 -8.58 -2.43 -10.76 27.83c-0.69,2.09 -2.92,3.3 -5.07,2.69l-0.32 -0.09 0 0c-1.31,-0.37 -2.42,-1.38 -2.85,-2.78l-11.2 -36.19 -8.91 -2.51zm-416.5 110.06c2.78,0.22 6.08,-0.21 9.88,-1.29 3.87,-1.09 7.27,-2.58 10.19,-4.46 2.86,-1.83 5.26,-4.04 7.19,-6.61 1.96,-2.59 3.43,-5.5 4.4,-8.71 1,-3.26 1.5,-6.9 1.5,-10.91l0 -29.96 -17.19 4.86 0 6.84 3.26 -0.92c0.44,-0.16 0.91,-0.24 1.4,-0.24 2.3,0 4.17,1.86 4.17,4.16l0 21.22c0,4.38 -1.01,8.02 -3.04,10.92l-0.01 -0.01c0,0 0,0.01 0,0.01 -2.1,3 -5.15,5.07 -9.14,6.2 -9.63,2.72 -14.44,-1.27 -14.44,-11.95l0 -59.31c0,-9.21 4.06,-14.97 12.19,-17.27 1.57,-0.44 3.02,-0.67 4.34,-0.67 2.37,0 4.38,0.67 6.05,2 1.6,1.28 2.73,3.07 3.38,5.37 0.45,1.57 0.67,3.37 0.67,5.4l0 4.88 8.36 -2.36 0 -6.15c0,-3.9 -0.48,-7.15 -1.43,-9.73 -0.84,-2.29 -2.07,-4.05 -3.67,-5.27 -1.59,-1.21 -3.61,-1.91 -6.05,-2.1 -2.79,-0.21 -6.08,0.22 -9.88,1.29 -3.88,1.1 -7.28,2.58 -10.2,4.46 -2.85,1.83 -5.25,4.04 -7.19,6.61 -1.95,2.59 -3.42,5.5 -4.4,8.72 -0.99,3.25 -1.49,6.89 -1.49,10.9l0 56.98c0,3.9 0.47,7.15 1.43,9.73 0.84,2.29 2.06,4.05 3.67,5.27 1.59,1.21 3.61,1.91 6.05,2.1zm84.67 -116.94l-17.78 2.25 -17.5 102.24 8.27 -1.05 2.85 -18.53 0.02 0c0.26,-1.79 1.69,-3.26 3.58,-3.5l19.27 -2.44c0.42,-0.23 0.9,-0.4 1.4,-0.48 2.27,-0.35 4.39,1.2 4.74,3.47l2.7 17.11 9.95 -1.26 -17.5 -97.81zm-5.46 15.28l8.14 52.49c0.01,0.06 0.02,0.12 0.03,0.17 0.28,2.28 -1.33,4.36 -3.6,4.64l-16.16 2.05c-0.46,0.09 -0.94,0.11 -1.43,0.04 -2.27,-0.34 -3.85,-2.45 -3.51,-4.72l7.98 -54.59 0.01 0c0.26,-1.8 1.69,-3.28 3.59,-3.52l0.33 -0.04 0 0c2.22,-0.28 4.28,1.26 4.62,3.48zm59.41 -20.66l-18.58 1.2 0 100.05 7.74 -0.5 0 -78.16 0.01 0c0,-2.18 1.69,-4.02 3.9,-4.15l0.33 -0.03 0 0.01c2.11,-0.14 4.02,1.35 4.37,3.48l12.78 77.48 8.34 -0.54 12.84 -79.43c0.21,-1.98 1.82,-3.58 3.87,-3.71l0.06 0c0.18,-0.02 0.36,-0.03 0.54,-0.03 2.3,0 4.16,1.86 4.16,4.16l0 77.64 9.08 -0.59 0 -100.05 -18.5 1.18 -11.22 75 0 0c-0.28,1.91 -1.86,3.43 -3.86,3.55l-0.11 0.01c-2.22,0.26 -4.27,-1.29 -4.6,-3.52l-11.15 -73.05zm113.61 -2.92l-42.02 -0.21 0 100.09 42.02 0.21 0 -7.19 -27.38 -0.13c-0.11,0.01 -0.23,0.01 -0.35,0.01 -2.3,0 -4.16,-1.86 -4.16,-4.16l0 -33.3 0.01 0c0,0 0,-0.01 0,-0.01 0.01,-2.29 1.88,-4.14 4.17,-4.14l21.16 0.11 0 -7.19 -20.83 -0.1c-0.11,0.01 -0.23,0.02 -0.35,0.02 -2.3,0 -4.16,-1.87 -4.16,-4.17l0 -28.65 0.01 0c0,0 0,-0.01 0,-0.01 0.01,-2.29 1.88,-4.14 4.17,-4.14l27.71 0.14 0 -7.18zm59.36 2.39l-40.45 -1.84 0 100.07 10.1 0.46 0 -42.88 0.02 0c0,-0.06 0,-0.12 0,-0.18 0.1,-2.29 2.04,-4.07 4.33,-3.97l19.46 0.89 0 -7.17 -19.51 -0.89c-0.04,0 -0.08,0 -0.13,0 -2.3,0 -4.17,-1.86 -4.17,-4.16l0 -30.2 0.02 0c0,-0.06 0,-0.12 0,-0.18 0.1,-2.29 2.04,-4.07 4.33,-3.97l26 1.19 0 -7.17zm27.22 2.51l-10.02 -1.01 0 100.04 40.22 4.06 0 -7.13 -26.13 -2.64c-2.26,-0.05 -4.07,-1.89 -4.07,-4.16l0 -89.16zm57.15 7.36l-9.88 -1.51 0 99.97 9.88 1.51 0 -99.97z"/>
  </g>
 </g>
</svg>
